<svg width="39" height="39" viewBox="0 0 39 39" fill="none" xmlns="http://www.w3.org/2000/svg"><path fill-rule="evenodd" clip-rule="evenodd" d="M19.5 0C8.73 0 0 8.73 0 19.5S8.73 39 19.5 39 39 30.27 39 19.5 30.27 0 19.5 0zm-4.287 9.163c1.109-.05 1.464-.063 4.288-.063h-.003c2.825 0 3.178.012 4.288.063 1.107.05 1.863.226 2.526.483.685.265 1.263.62 1.842 1.2a5.104 5.104 0 011.2 1.842c.256.66.431 1.417.483 2.524.05 1.11.063 1.464.063 4.288 0 2.825-.013 3.178-.063 4.288-.052 1.106-.227 1.862-.483 2.524a5.105 5.105 0 01-1.2 1.842 5.089 5.089 0 01-1.841 1.2c-.662.257-1.419.433-2.526.483-1.11.05-1.463.063-4.287.063-2.825 0-3.179-.012-4.288-.063-1.107-.05-1.863-.226-2.525-.483a5.093 5.093 0 01-1.841-1.2 5.096 5.096 0 01-1.2-1.843c-.257-.66-.432-1.416-.483-2.524-.05-1.109-.063-1.462-.063-4.287 0-2.824.013-3.18.063-4.289.05-1.106.225-1.862.483-2.524a5.105 5.105 0 011.2-1.842 5.092 5.092 0 011.842-1.199c.662-.257 1.417-.433 2.525-.483z" fill="#fff"/><path fill-rule="evenodd" clip-rule="evenodd" d="M18.568 10.974h.933c2.777 0 3.106.01 4.202.06 1.015.046 1.565.216 1.931.358.486.189.832.414 1.196.778.364.364.589.71.778 1.196.142.366.312.917.358 1.93.05 1.097.06 1.426.06 4.202 0 2.775-.01 3.105-.06 4.201-.046 1.014-.216 1.564-.358 1.93a3.215 3.215 0 01-.778 1.195 3.21 3.21 0 01-1.196.778c-.366.143-.916.312-1.93.358-1.097.05-1.426.061-4.203.061s-3.106-.01-4.203-.06c-1.014-.047-1.564-.217-1.93-.36a3.22 3.22 0 01-1.197-.777 3.223 3.223 0 01-.778-1.195c-.142-.367-.312-.917-.358-1.93-.05-1.097-.06-1.427-.06-4.204 0-2.777.01-3.105.06-4.201.046-1.014.216-1.564.358-1.93.188-.486.414-.833.778-1.197a3.21 3.21 0 011.196-.778c.367-.143.917-.312 1.931-.359.96-.043 1.332-.056 3.27-.058v.002zm6.484 1.727a1.248 1.248 0 100 2.497 1.248 1.248 0 000-2.497zm-10.892 6.8a5.341 5.341 0 1110.682 0 5.341 5.341 0 01-10.682 0z" fill="#fff"/><path d="M19.501 16.033a3.467 3.467 0 110 6.934 3.467 3.467 0 010-6.934z" fill="#fff"/></svg>