<svg width="726" height="369" viewBox="0 0 726 369" fill="none" xmlns="http://www.w3.org/2000/svg"><path d="M45.888 247.672h100.451v26.04h-36.247V369H82.328v-95.288h-36.44v-26.04zM220.377 369h-21.401l-48.587-121.328h29.692l30.463 80.049 29.114-80.049h27.957L220.377 369zm375.971-143.897H73.845C32.97 225.103 0 192.119 0 151.226c0-40.7 32.97-73.684 73.652-73.684h522.503c40.682 0 73.652 32.984 73.652 73.684.193 40.893-32.777 73.877-73.459 73.877z" fill="#fff"/><path d="M588.828 194.82c24.065 0 43.574-19.518 43.574-43.594s-19.509-43.593-43.574-43.593c-24.065 0-43.574 19.517-43.574 43.593 0 24.076 19.509 43.594 43.574 43.594z" fill="#CF2028"/><path d="M613.893 154.313l-37.79 17.938c-.771.386-1.542.193-2.313-.192-.772-.386-1.157-1.158-1.157-2.122v-36.071c0-.771.385-1.543 1.157-2.122.385-.192.964-.385 1.349-.385.386 0 .771 0 .964.193l37.79 17.938c.964.386 1.543 1.351 1.543 2.315 0 1.157-.579 2.122-1.543 2.508zm-3.085-82.365l-10.797-13.116h7.519l-10.99-13.503h5.013L588.25 29.32l-13.111 16.01h5.013l-10.99 13.503h7.519l-10.604 13.116h18.895v7.909h6.748v-7.909h19.088zm-426.1-2.7L167.355 48.03h12.34l-17.931-21.797h8.291L148.46 0l-21.401 26.233h8.098L117.419 48.03h12.339l-17.545 21.218h30.849v12.73h10.99v-12.73h30.656zm-84.449 2.893L89.654 59.025h7.52l-10.99-13.31h5.013L77.893 29.512l-13.11 16.203h5.013l-10.99 13.31h7.519L55.528 72.14h19.088v7.909h6.748V72.14h18.895z" fill="#fff"/><path d="M258.36 147.176c-.193.578-.386.964-.386 1.543-5.013 23.147 3.278 41.278 14.461 43.014 9.833 1.544 22.365-8.101 25.836-18.903h.193c2.121-.964 3.856.579 2.699 4.244-5.013 13.502-20.052 24.111-35.476 21.603-13.882-2.507-28.728-16.974-23.908-47.451.193-.964.385-1.929.578-3.086-16.196-.193-31.427-3.472-40.489-7.33-15.039-6.365-5.399-20.06-5.399-20.06 8.677 8.101 28.728 15.238 48.78 16.974 9.833-27.583 33.548-39.543 48.009-36.456 12.532 2.7 10.99 23.532-5.977 35.299-8.291 5.786-18.509 9.258-28.921 10.609zm2.314-9.066c9.447-.386 18.123-2.701 24.872-6.751 12.532-8.102 14.074-23.147 4.627-25.462-9.447-2.315-21.98 9.259-29.499 32.213zm69.41 50.344c-4.435-.386-6.363-1.929-3.664-14.081 1.157-5.594 2.507-10.995 3.664-16.588 3.085-12.345 3.277-16.396 3.277-16.396s.193 0 .772-.193c4.241-.579 6.941 1.35 6.169 8.101 5.206-7.329 11.376-7.137 13.882-3.086 2.121 3.472 1.35 8.102-1.735 11.574-2.506 2.893-6.362 3.665-8.098 1.35-2.121-2.701.193-6.366 3.085-5.98 4.435.579 7.327-2.507 5.206-5.979-2.507-4.051-10.412-.386-15.232 14.466-1.157 5.016-6.17 25.269-6.555 27.198 0-.386-.193-.386-.771-.386zm25.45-32.984c2.699-10.223 6.363-10.03 9.255-8.294.771.578 1.156.964 1.156.964-.192.772-4.627 16.203-7.133 26.426-1.928 7.716.964 7.909 3.085 5.015 2.313-3.472 4.048-9.837 6.941-16.395 1.349-3.28 2.12-3.665 2.12-2.122 0 .578-.385 1.929-1.349 4.05-2.507 5.787-4.049 11.574-6.748 15.817-5.206 8.488-15.039 6.173-10.605-11.959.386-2.314 2.314-9.451 3.278-13.502zm6.363-13.117c-3.085-.964-4.435-3.857-2.893-6.172 1.35-2.315 5.206-3.279 8.291-2.315 3.085 1.157 4.435 3.858 3.085 6.366-1.735 2.314-5.399 3.086-8.483 2.121z" fill="#CF2028"/><path d="M388.118 161.257c.771 2.7.964 5.401.964 8.294-.193 13.695-12.339 19.868-18.895 16.01-5.398-3.086-3.663-11.188.964-16.01 2.121-2.315 5.399-4.629 9.448-6.558-1.157-5.208-3.278-10.031-5.399-13.503-1.735 4.63-3.085 9.452-4.627 12.924-.386.964-1.928 4.436-2.314 3.472-.385-.964.193-2.315.579-3.472 1.542-4.437 3.277-10.03 5.013-15.045-.193-.193-.386-.386-.386-.772-3.47-4.822-2.892-8.487-1.157-10.995 2.699-3.858 8.484-1.929 8.484-1.929 0 .386-.772 2.508-2.121 5.594-.579 1.35-.964 2.701-1.543 4.051 4.435 5.015 8.291 10.223 10.219 16.588 2.314-.771 5.013-1.157 7.519-1.35 3.471-.386 4.435 0 2.893.772-.386.193-2.121.578-4.242.771a34.181 34.181 0 00-5.399 1.158zm-7.134 3.279c-3.663 1.929-6.555 4.436-8.29 6.365-3.856 4.244-4.435 10.416-1.157 12.538 3.47 2.122 9.062-2.122 9.833-11.573.193-2.508 0-5.016-.386-7.33z" fill="#CF2028"/><path d="M403.157 126.536c.386-1.736.964-3.472 1.35-5.208-13.882-3.279-32.97-3.279-43.574 3.665l-.772-.771c-6.941-6.944-3.277-12.538 7.327-13.503 8.869-.578 25.258 1.158 38.368 5.594 2.121-8.101 2.507-11.188 2.507-11.188s.193-.193.771-.193c7.712-.771 10.026 3.28 6.941 14.467 1.928.579 3.856.965 5.399 1.158 9.447.964 11.954-2.122 12.146-1.158.193 2.122-1.542 5.594-14.46 4.63-1.35 0-2.699-.193-4.242-.386-2.313 7.716-11.761 38.578-14.075 47.837-2.892 10.03 1.157 10.416 3.857 6.558 3.084-4.436 4.627-8.101 8.676-16.589 1.928-4.05 2.892-4.822 2.699-2.7 0 .772-.578 2.7-1.735 5.015-3.471 7.716-5.013 10.416-8.484 16.01-7.326 10.995-20.051 7.716-13.689-16.01 2.699-10.802 8.291-27.776 10.99-37.228z" fill="#CF2028"/><path d="M447.888 176.495c-2.121 7.716.386 6.944 2.314 4.051 2.506-3.472 5.206-9.066 8.483-15.432 1.543-3.086 2.314-3.664 2.121-1.928 0 .578-.578 1.928-1.349 3.857-2.7 5.787-5.399 10.802-8.291 15.046-5.591 8.294-14.846 7.523-9.64-10.609 1.157-3.858 2.313-7.716 3.663-11.766 4.82-15.239 4.049-18.711.578-15.818-3.856 3.28-8.097 10.031-10.411 18.518-.386.772-.386 1.35-.578 1.929-2.314 7.908-5.013 18.903-5.206 20.061h-.964c-4.435 0-7.327-2.315-4.435-11.96l4.049-13.309c4.628-15.239 4.049-18.711.579-15.817-3.471 3.086-7.52 9.259-9.834 16.781-.192.579-.385 1.158-.578 1.929 0 .386-.193.772-.386.965-1.928 6.944-3.856 13.695-5.784 20.639 0 0-.385 0-.771-.193-4.434-.579-6.363-2.122-3.085-14.274 1.543-5.401 2.892-10.995 4.435-16.396 3.856-14.081 0-13.116 0-13.116s1.157-3.086 4.627-3.279c5.206-.579 7.905 2.314 4.627 12.731-.192.192-.192.385-.192.771 1.928-3.279 4.241-6.172 6.555-8.101 6.17-5.015 11.954-3.279 9.64 9.837 2.121-3.858 4.628-7.137 7.327-9.259 7.326-5.786 14.653-2.314 7.712 18.325-2.314 6.365-3.856 11.381-5.206 15.817z" fill="#CF2028"/><path d="M493.197 149.876s-.192 1.157-2.12 2.508c-1.35.964-2.507 1.35-3.857 0-1.928-2.122-5.012-3.665-8.483-3.279-5.013.578-8.291 5.786-12.34 17.938-5.013 15.432-1.928 22.569 1.157 19.097 1.736-1.929 3.856-6.559 5.784-13.31.193-.579.386-.964.386-1.543.771-2.315 1.157-3.665 2.699-8.68 3.471-10.802 5.206-12.152 10.219-8.873.771.386 1.157.771 1.157.771-.771 2.122-3.471 9.259-8.291 25.076-2.313 7.716.771 7.909 2.7 5.208 2.506-3.472 3.856-5.979 7.133-12.345 1.543-3.086 2.314-3.665 2.121-2.121 0 .578-.578 1.928-1.542 3.857-2.892 5.787-3.856 7.716-6.941 11.96-4.628 6.558-11.761 5.979-11.569-3.858-1.156 2.314-2.12 4.05-3.277 5.401-6.363 7.137-16.196-1.158-9.641-21.411 4.821-15.046 17.739-20.447 26.8-19.482 4.821.579 7.52 2.507 7.905 3.086z" fill="#CF2028"/><path d="M509.394 173.409c.578 2.7.578 5.401.578 8.294-.964 13.695-13.496 19.096-19.666 14.853-5.206-3.472-2.892-11.381 1.735-16.01 2.121-2.122 5.591-4.437 9.833-5.98-.771-5.208-2.699-10.223-4.627-13.695-2.121 4.436-4.242 9.066-5.977 12.538-.579.964-2.121 4.243-2.507 3.279-.192-1.157.386-2.315.772-3.279 1.928-4.244 4.434-9.645 6.555-14.467-.193-.193-.386-.386-.386-.772-3.085-5.015-2.313-8.68-.385-10.994 2.892-3.665 8.676-1.543 8.676-1.543-.193.385-.964 2.507-2.314 5.593l-1.735 4.051v.193c4.049 5.208 7.519 10.802 9.062 17.167 2.506-.578 5.013-.964 7.712-.964 3.471 0 4.242.193 2.892.964-.385.193-2.121.386-4.241.386-2.121-.386-4.049-.193-5.977.386zm-7.327 2.7c-3.663 1.736-6.748 4.051-8.676 5.787-4.242 4.051-5.013 10.03-1.928 12.345 3.277 2.315 9.061-1.736 10.604-10.995.193-2.122.193-4.629 0-7.137zm-174.104-5.015c-2.699 6.558-3.856 9.259-5.977 12.924-1.928 2.893-4.82 2.7-3.085-5.015.964-4.63 1.157-5.594 2.892-12.152 5.592-20.833-2.506-23.919-9.254-17.746-1.929 1.736-3.664 4.243-5.206 7.137.964-4.437 2.121-8.102 2.699-10.224.386-1.736.964-3.279 1.35-5.015 4.049-1.543 7.905-4.051 11.182-7.523 7.134-7.522 11.376-18.324 6.941-22.954-4.049-4.05-16.195-4.436-25.064 26.041 0 0-3.664.385-5.784-.772 0 0-1.736 3.086.771 5.208 0 0 1.542.965 3.663.772-.193.386-.193.771-.386 1.157v.386c-2.506 10.802-5.398 22.954-7.519 33.177-2.699 12.345-.578 13.888 3.856 14.081h.771l4.049-17.939c.193-.578.579-1.543.771-2.893 1.736-8.68 5.013-15.817 8.677-19.289 3.277-3.279 4.82.386.964 15.817-.386 1.35-1.543 6.558-1.928 7.908-4.049 18.325 5.591 19.482 10.604 10.802 2.507-4.436 3.663-6.558 5.977-12.538.771-1.929 1.157-3.472 1.157-3.857 0-1.158-.771-.579-2.121 2.507zm-1.928-59.024c4.242 3.472.193 13.888-5.013 19.096-1.735 1.736-4.627 3.279-8.098 4.243 7.134-23.147 10.412-25.461 13.111-23.339z" fill="#CF2028"/><path fill-rule="evenodd" clip-rule="evenodd" d="M160.8 134.831c-13.304 0-24.872 10.801-24.872 28.162 0 9.066 4.82 14.852 16.196 14.852 12.918 0 24.872-10.802 24.872-27.969 0-8.487-4.628-15.045-16.196-15.045zm-7.327 33.755c-4.82 0-6.555-2.893-6.555-7.329 0-8.295 4.627-17.553 12.34-17.553 4.82 0 6.748 2.507 6.748 7.329.193 9.452-5.013 17.553-12.533 17.553zm-29.884-5.979l3.084-16.782c.193-.771.193-2.314.193-2.314s.964.385 2.314.385h7.327l1.735-8.294h-7.712c-1.157 0-1.929.386-1.929.386s.579-1.157.772-2.122l1.735-9.066-11.568 2.508-6.749 36.263c-1.735 9.838.772 14.081 9.641 14.081 2.506 0 5.784-.385 8.483-.964l.964-8.487c-1.542.385-3.085.578-5.206.578-3.47 0-4.048-1.35-3.084-6.172zm-20.631-26.619s.386-.964.579-1.736l1.735-9.259-10.797 2.315-1.35 6.944c-.193.964 0 1.736 0 1.736s-.771-.386-1.928-.386h-4.242l-1.735 8.294h4.435c.964 0 1.928-.385 1.928-.385s-.579 1.157-.771 2.507l-3.278 17.746c-1.928 9.838.578 14.081 9.447 14.081 2.507 0 5.785-.386 8.484-.964l.964-8.487c-1.543.385-3.085.578-5.206.578-3.47 0-4.049-1.35-3.085-6.172l3.085-16.782c.193-1.157 0-2.314 0-2.314s1.157.385 2.314.385h6.941l1.735-8.294h-7.327c-.964-.193-1.928.193-1.928.193zm-37.597-1.157c-13.303 0-24.872 10.801-24.872 28.162 0 9.066 4.82 14.852 16.003 14.852 12.918 0 25.065-10.802 25.065-27.969 0-8.487-4.627-15.045-16.196-15.045zm-7.326 33.755c-4.82 0-6.749-2.893-6.749-7.329 0-8.295 4.628-17.553 12.34-17.553 4.82 0 6.748 2.507 6.748 7.329.193 9.452-5.013 17.553-12.34 17.553z" fill="#CF2028"/><path d="M539.663 43.015c.771-1.93 1.35-4.63-.385-5.401-2.507-1.543-5.399 3.472-8.098 1.736-1.157-.772-1.157-3.087-1.35-4.244-.193-1.736-.771-3.28-1.542-4.822-.771-1.93-5.592-5.98-3.085-8.102 2.121-1.928 6.748 1.158 8.869-1.928.386-.58.386-.965.193-1.158.771 0 1.349-.386 1.349-.964 0-.579-.771-1.158-1.735-1.158-.964 0-1.928.386-1.928.772-1.35-.386-2.892-.772-3.663-1.35-.964-.965-1.157-2.315-2.7-2.7-.385-.194-.578-.194-.964-.194 0-.386 0-.578.193-.771.193-.193.964-.193 1.35-.193.385 0 .964 0 1.35-.193 1.735-.579 3.277-1.35 4.241-2.7 1.543-.193 3.085-.386 3.856-2.508.579-1.543.772-3.472.386-5.208 0-.386-.386-.579-.771-.386-.386 0-.579.386-.579.772.386 1.543.193 3.279-.385 4.436-.386.965-.964 1.35-1.928 1.543.192-.578.385-.964.385-1.543 0-.386 0-.579.193-.964V5.4c0-.386-.193-.579-.578-.772-.386 0-.579.193-.772.579v1.35c-.192 1.158-.771 2.315-1.542 3.086 0 0-.193 0-.578-.192-.579-.386-.386-.772 0-1.93 0-.192 0-.192.192-.385.193-.386 0-.772-.385-.772-.386-.193-.771 0-.771.386 0 .193 0 .193-.193.386-.386.964-.771 2.315.385 3.279 0 0 .193 0 .193.193-.578.193-.964.579-1.735.771h-.964c-.771 0-1.543 0-2.121.386-.578.386-.771 1.158-.771 1.736h-.579c-.192-1.929-2.12-2.122-3.47-2.314-1.543-.193-3.085-.58-4.627-1.35 0 0 .192-.194.192-.386.772-.965.386-2.508.193-3.665V5.4c0-.386-.385-.579-.771-.386-.386 0-.579.386-.579.772v.385c.193.772.386 2.122 0 2.508 0 0-.192.193-.385.193-.771-.772-1.543-1.736-1.928-2.893-.193-.58-.193-1.35-.193-1.736 0-.386-.193-.58-.578-.58-.386 0-.579.194-.772.58 0 .578 0 1.35.193 2.121.193.386.193.772.386 1.158-.964-.193-1.543-1.736-1.543-1.736-.385-.965-.578-2.508-.385-4.244 0-.386-.193-.579-.579-.579-.385 0-.578.193-.771.58-.193 1.928 0 3.471.386 4.821.385.965 1.349 2.508 2.892 2.508h.578c1.735 2.315 4.82 3.086 7.327 3.472 1.349.193 2.121.386 2.314.964-1.929-.192-10.219.772-6.17 2.894 2.506 0 1.542-.386 3.085-.579-3.278 2.893-1.35 9.259-1.157 12.73.193 3.859-1.35 5.209-5.206 6.56-3.278 1.157-5.591.77-8.676 0-1.735-.387-5.592-.965-7.712-.194-.386-1.35-1.157-2.121-2.507-2.7-1.542-.772-4.434-1.158-5.591-2.7.193 2.314.964 5.014 3.277 6.172.772.386 1.736.386 2.7.386-8.484 0-17.16.193-25.836.771-.193-.193-.386-.386-.771-.578-.965-.386-2.121 0-3.278.771-1.543.193-3.278.193-4.82.386h-1.157c-.386-.965-.386-2.122-.386-2.894-.193-1.736-.771-3.086-1.542-4.629-.771-1.736-5.592-5.4-3.085-7.715 2.121-2.122 6.941.578 9.062-2.701.385-.579.385-.964.193-1.157.771-.193 1.349-.579 1.349-1.158 0-.578-.771-.964-1.735-.964-.964 0-1.928.579-1.928.964-1.35-.385-2.892-.578-3.663-.964-.964-.772-1.157-2.122-2.7-2.508-.385 0-.578-.193-.964-.193 0-.385 0-.578.193-.771.193-.193.964-.193 1.35-.386.385 0 .964-.193 1.349-.193 1.736-.771 3.278-1.736 4.242-3.086 1.543-.193 3.085-.772 3.856-2.893.579-1.544.771-3.665.386-5.208 0-.386-.386-.58-.771-.386-.386.193-.579.578-.579.771.386 1.35.193 3.087-.385 4.437-.386.964-.964 1.35-1.928 1.736.192-.579.385-1.158.385-1.736 0-.386 0-.579.193-.965v-.385c0-.386-.193-.58-.578-.58-.386 0-.579.387-.772.58v1.35c-.193 1.157-.771 2.314-1.542 3.279 0 0-.386.193-.579-.193-.578-.386-.385-.772 0-1.929 0-.193 0-.193.193-.386.193-.385 0-.771-.385-.771-.386 0-.772.193-.772.578 0 .193 0 .193-.192.386-.386.965-.964 2.315.385 3.28 0 0 .193 0 .193.192-.578.386-.964.579-1.735.772-.193 0-.579.193-.964.193-.772 0-1.543.193-2.121.771-.579.579-.771 1.158-.771 1.736h-.579c-.193-1.929-2.121-1.929-3.47-2.122-1.543 0-3.278-.192-4.628-.964.193-.193.193-.193.193-.386.771-1.157.386-2.507.193-3.472v-.386c0-.385-.386-.578-.771-.385-.386.193-.579.578-.579.771v.386c.193.772.386 1.929 0 2.508 0 0-.192.192-.385.192-.964-.578-1.543-1.543-1.928-2.7-.193-.579-.193-1.157-.193-1.736 0-.386-.193-.579-.579-.579-.385 0-.771.386-.771.772 0 .579 0 1.35.193 2.122.193.385.193.771.386 1.157-.964-.193-1.543-1.543-1.543-1.543.193-.579.193-1.929.193-3.858 0-.386-.193-.579-.578-.579-.386 0-.772.386-.772.772-.192 1.929 0 3.472.386 4.63.386.964 1.35 2.314 3.085 2.314.193 0 .385 0 .578-.193 1.736 2.122 4.82 2.7 7.327 2.7 1.542 0 2.121.194 2.314.772-1.928 0-10.412 1.736-6.17 3.472 2.506-.193 1.542-.578 3.085-.771-3.278 3.086-1.35 9.258-1.157 12.73.193 3.858-1.35 5.401-5.206 6.945-3.278 1.543-5.591 1.157-8.676.771-1.735-.386-5.592-.579-7.905.386-.386-1.157-1.157-1.929-2.507-2.508-1.542-.771-4.627-.771-5.591-2.314.193 2.314.964 4.822 3.278 5.786.771.193 1.735.386 2.699.193-.771.386-1.35 1.35-1.735 2.315-7.134.771-14.268 1.543-21.595 2.315.193-1.35 0-2.508-.964-2.894-2.506-.964-5.398 4.244-8.29 2.894-1.157-.58-1.157-2.894-1.35-4.051-.193-1.736-.771-3.086-1.542-4.437-.772-1.736-5.592-5.015-3.085-7.522 2.121-2.315 6.941.193 9.062-3.087.385-.578.385-.964.192-1.157.772-.193 1.35-.579 1.35-1.157 0-.579-.771-.965-1.735-.965-.964 0-1.928.579-1.928 1.158-1.35-.193-2.892-.386-3.664-.772-1.156-.771-1.156-2.122-2.699-2.315-.385 0-.578-.193-.964-.193 0-.385 0-.578.193-.771.193-.193.964-.386 1.35-.386.385 0 .964-.193 1.349-.386 1.736-.771 3.278-1.929 4.242-3.279 1.542-.386 3.085-.964 3.856-3.086.579-1.543.771-3.665.386-5.208 0-.386-.386-.579-.771-.386-.386.193-.579.579-.579.772.386 1.35.193 3.086-.386 4.436-.385.965-.964 1.543-1.928 1.736.193-.579.386-1.157.386-1.736 0-.386 0-.579.193-.964v-.386c0-.386-.193-.579-.579-.579-.385 0-.771.386-.771.772v1.35c-.193 1.157-.771 2.315-1.542 3.28 0 0-.386.192-.579 0-.578-.387-.385-.772 0-1.93 0-.193 0-.193.193-.386.193-.385 0-.771-.385-.771-.386 0-.772.193-.772.579 0 .192 0 .192-.193.385-.385.965-.964 2.508.386 3.28 0 0 .193 0 .193.192-.578.386-.964.58-1.735.965-.193.193-.579.193-.964.193-.772.193-1.543.193-2.121.771-.579.579-.771 1.158-.771 1.736h-.579c-.193-1.929-2.121-1.929-3.47-1.929-1.543 0-3.278-.192-4.628-.771.193-.193.193-.193.193-.386.771-1.157.386-2.508.193-3.472v-.386c0-.386-.386-.578-.771-.386-.386.193-.579.58-.579.772v.386c.193.771.386 1.929 0 2.507 0 0-.193.193-.385.193-.964-.578-1.543-1.543-1.928-2.7-.193-.579-.193-1.158-.193-1.736 0-.386-.193-.579-.579-.579-.385 0-.771.386-.771.772 0 .578 0 1.35.193 2.122.193.385.193.771.386 1.157-.964-.193-1.543-1.543-1.543-1.543-.386-.965-.578-2.315-.386-4.244 0-.386-.192-.579-.578-.579-.386 0-.771.386-.771.772-.193 1.929 0 3.472.385 4.63.386.964 1.35 2.314 3.085 2.121.193 0 .386 0 .579-.193 1.735 2.122 4.82 2.508 7.519 2.508 1.543 0 2.121.193 2.314.771-1.928.193-10.412 2.122-6.17 3.665 2.507-.192 1.543-.578 3.085-.964-3.47 3.28-1.35 9.259-1.157 12.73.193 3.858-1.349 5.402-5.206 7.138-3.277 1.543-5.591 1.35-8.676.964-1.735-.193-5.591-.578-7.905.579-.386-1.157-1.157-1.93-2.506-2.508-1.543-.579-4.628-.771-5.592-2.122.193 2.315.964 4.823 3.278 5.787.771.193 1.735.386 2.699.193-.964.386-1.542 1.543-1.928 2.7-11.761-1.157-22.558-4.436-33.741-7.908-8.869-2.893-16.195-3.665-24.293-2.7-3.085-.386-6.17-.58-9.255-.386-.578-.386-1.35-.386-2.121-.579-2.313-.386-4.627-.579-6.941-.193-.964.193-1.928.386-2.892.772-2.699 1.157-4.82 3.086-6.363 5.4.193-.77.386-1.35.579-2.121-.193-.193-.386-.193-.579-.386 0-5.4-1.928-10.995-5.591-15.238.964 0 1.735-.193 2.121-.193 2.121-.386 5.013-1.736 6.17-3.665.771-1.35 1.157-3.086 1.349-4.63v-.964c.579 0 1.157-.964.579-1.35 1.157-.772.385-1.543-.386-1.93v-.192c.579 0 1.157-.386 1.543-.964.192 0 .578-.193.578-.193.578 0 2.314 1.157 2.314-.386 0-.193-1.543.193-2.314-.193.771-.386 4.435-2.122 3.471-2.893-.386-.193-2.314 1.543-3.471 2.121 0 0 0-.192-.193-.192.579-.772 4.242-2.7 4.049-3.665 0-.579-2.121.964-2.313 1.157-.579.386-1.929 1.929-2.507 1.35 1.157-.771 4.049-2.7 3.471-3.086-.579-.579-2.507 1.35-4.435 2.7-.193.193-.386.193-.578.386l-.193-.193V5.98c0-.193.193-.386.193-.58 0-.192.192-.385.192-.578V4.63s0-.193-.192-.193l-.193-.192h-.193s-.193 0-.193.192c-.193.193-.193.386-.193.58-.192.385-.192.77-.192.964 0 .385 0 .771-.193.964 0 .386-.193.772-.193.964v1.736c0 .386 0 .772-.193 1.35-.385-.964-2.699 1.158-.771 1.351-.771.386-.578 1.736.193 1.157-.386 1.543-1.157 3.28-2.121 4.244h-.193c-.771-.386-.964-.193-.964.771-1.735.193-8.291 0-10.411 0-.193 0-.386-.192-.579-.192-.964-.386-1.735-.772-2.699-.965.385-.193.771-.193 1.349-.386.193 0 .386-.193.579-.385.193 0 .193-.193.385-.193 0 0 .193-.193.193-.386v-.386c0-.193-.193-.193-.385-.193-.193 0-.579 0-.772.193-.192 0-.385.193-.771.193-.193 0-.385.193-.578.193-.193 0-.386-.193-.579-.193v-.193c0-.579.193-.964.386-1.543.193-.386.193-.579.386-.964.964-.386 1.542-1.35.771-2.315.578-.386.964-.965.771-1.736-.193-.579-.771-1.158-1.35-.772.964-1.35-.771-2.314-1.928-1.543.386-.771-.192-1.35-.964-1.543h-.385l-.579-.579c-1.157-.964-2.506-1.736-3.856-2.507-.578-.386-1.542-.772-2.121-.386-.771.386-1.156 1.157-1.542 1.736-.386.772-.771 1.543-1.157 2.122-.193.386-.578 1.157-.771 1.736-.386-.386-1.543 0-1.35.771-1.157 0-1.157 1.543-.193 1.35-.578.965.964 1.544 1.35.965.771.386 1.928-.579 1.157-1.157.578-.386.385-1.158 0-1.35.193-.193.385-.386.385-.58.386-.578.772-1.35 1.157-2.121-.192.386-.385 1.35 0 1.543.386-.386.772-.964.964-1.35-.385.964-.385 1.929-.385 2.893v1.158c-.386-.386-.771 0-.964.578-.193.579.193.965.385 1.35-.385-.385-.771 0-.964.58 0 .578.193.77.579 1.156.193.193.385.193.578.386-.193.579-.385 1.158-.771 1.736 0 0-.193 0-.193-.193-.193 0-.193-.193-.386-.385-.192 0-.385-.193-.578-.193h-.193v.193c0 .578.193 1.157.579 1.543-.386.578-.964 1.157-1.35 1.929-.964.385-1.928.964-2.892 1.543-1.157 0-2.699.193-3.856.578-1.928.386-4.82.965-6.556 1.93-.771.385-1.349.77-1.928 1.157-1.349-.772-3.277-1.35-5.398-1.93-2.699-.77-8.291-2.314-8.869 1.351-.193.579-.193 1.157-.386 1.736v1.35c-.193.579-.193 1.158-.385 1.736 0 3.665 1.735 5.98 5.205 6.752 3.278.578 5.206 1.928 6.749 3.857 0 .579 0 .965-.193 1.736-.386 3.665-2.314 7.137-2.892 10.802-.579 4.244-.193 10.03 2.313 13.695-.964 1.93-3.277 3.858-5.205 4.437-.386.193-.772.193-.965.193-.192 0-.385-.193-.578-.193h-.193s-.193-.193-.385-.193c-.579-.579-1.157-.964-1.543-1.736-.578-.772-.771-1.543-.578-2.315.193-.771-.193-1.543-1.157-1.736h-.578c-.772-.193-1.543.193-1.929 1.158-.385 1.543 0 3.086.965 4.629.385.579.964 1.35 1.542 1.736l.193.193c0 1.157.385 2.508.964 3.665.385.578.964 1.35 1.542 1.736.386.386.964.772 1.35 1.157 1.35.772 2.699 1.35 3.856 1.543 3.856.579 22.365 1.544 38.368 1.35h.579c10.99 0 20.63-.385 23.715-.578 5.591-.386 13.496-1.736 17.545-9.645 1.928-3.664 2.507-7.715 1.35-10.801-.579-1.35-1.35-2.508-2.314-3.28-.193-.771-.193-1.35-.578-1.928-.964-2.508-2.892-4.051-5.592-4.823-1.156-.193-2.313-.386-3.277-.193-2.314 0-4.435.772-6.749 2.508a4.501 4.501 0 00-1.349 1.35c-.386-2.122-.771-4.436-.771-6.751 0 0 3.47-.965 3.856-.965 1.157-.385 2.313-1.157 2.699-2.314.386-.579.386-1.35.578-2.122.964-.193 1.928-.579 2.892-.772a21.597 21.597 0 014.435-1.157c.386 0 .578 0 .964-.193 3.471.579 6.941 1.35 10.797 2.7 15.232 4.823 29.499 9.26 46.466 8.68l-.578 1.158c-1.35 2.7-3.663 5.787-6.748 6.173-2.7.385-4.049-.965-6.17 1.736-2.121 2.7-5.591 4.629-8.869 3.472-.579.964-1.928 2.507-1.735 3.472 0 0 1.735.386 3.085.193 3.084-.772 5.784-1.544 8.29-3.665.964-.772 1.543-1.544 2.121-1.93-.964 2.315-3.663 4.051-5.784 5.016-.771.386-1.735.386-2.507.772-.964.385-.964.964-1.349 1.928-.193.386-.579 2.122-.193 2.508.578.386 2.121-.772 2.699-1.157 3.664-2.315 6.941-5.401 10.797-6.945 1.35-.578 2.892-.964 4.242-1.543 2.507.193 5.399-.193 7.712-2.121 1.736-1.158 2.507-2.315 4.049-3.665 1.157-1.158 2.699-1.158 4.242-1.158 3.085.193 5.977 0 9.255-.193 3.084-.192 6.169-.578 9.447-1.157a80.698 80.698 0 004.627-1.157h.193c1.543-.193 2.892-1.158 4.435-1.736.964-.193 3.47-1.158 4.241-.386-1.156 1.929-2.699 4.05-3.856 5.208-.192.193-.385.193-.578.386-.193.193-.578.386-.964.771h-.386c-.192.193-.193.386-.193.579-.385.193-.578.386-.964.579-.385.193-.771.578-1.349.578-.579 0-.771-.578-1.157-.385-.771.193-2.314 3.279-2.699 4.822 1.349.386 4.627-2.315 5.591-3.086.193 0 .193-.193.386-.193.192.964.578 1.736 1.157 1.929.964.193 2.892-3.665 3.277-4.244.386-.579.771-.964.964-1.543 1.928-1.35 6.941-5.594 5.977-7.523 6.556-.579 13.111-.964 19.859-1.35-1.349 2.508-3.663 5.594-6.748 5.98-2.699.385-4.049-.965-6.17 1.736-2.121 2.7-5.591 4.629-8.869 3.472-.578.964-1.928 2.507-1.735 3.472 0 0 1.735.385 3.085 0 3.085-.772 5.784-1.736 8.29-3.858.964-.772 1.543-1.543 2.121-1.93-.964 2.316-3.663 4.052-5.784 5.016-.771.386-1.735.386-2.506.772-.964.385-.964.964-1.35 2.121-.193.386-.578 2.122-.193 2.508.579.386 2.121-.772 2.699-1.157 3.664-2.315 6.942-5.594 10.798-6.944 1.349-.58 2.892-.772 4.241-1.35 2.507.192 5.399-.194 7.713-2.122 1.735-1.158 2.506-2.315 4.049-3.473 1.156-1.157 2.699-.964 4.241-.964 3.085.193 5.977.193 9.255 0 3.085-.193 6.17-.386 9.447-.964 1.736-.193 3.085-.579 4.628-1.158h.193c1.542-.193 2.892-1.157 4.241-1.543.964-.193 3.278-.964 4.242-.193-1.157 1.93-2.699 3.858-3.856 5.015-.193.193-.386.193-.579.386-.192.193-.578.386-.964.579h-.385c-.193.193-.193.386-.193.579-.386.192-.578.385-.964.578-.386.193-.771.579-1.35.386-.578 0-.771-.579-1.156-.579-.772.193-2.314 3.28-2.7 4.63 1.157.578 4.628-2.122 5.592-2.894.192 0 .192-.193.385-.193.193.965.579 1.736 1.157 1.93.964.192 2.892-3.473 3.278-4.244.385-.579.771-.965.964-1.543 2.121-1.35 7.326-5.594 5.591-7.716 1.735-.193 3.278-.193 5.013-.386 5.977-.386 11.954-.578 17.931-.771l-.578 1.157c-1.35 2.508-3.664 5.401-6.749 5.594-2.699.193-4.049-1.158-6.169 1.35-2.121 2.508-5.592 4.244-8.869 2.893-.579.772-1.929 2.508-1.736 3.473 0 0 1.736.385 3.085.192 3.085-.578 5.784-1.35 8.098-3.279.964-.771 1.35-1.543 2.121-1.736-.964 2.315-3.663 3.858-5.784 4.63-.772.385-1.736.385-2.507.771-.964.193-.964.965-1.349 1.93-.193.385-.579 2.12-.193 2.507.578.385 2.121-.772 2.699-.965 3.663-2.122 6.748-5.208 10.797-6.365 1.35-.386 2.892-.579 4.242-1.158 2.506.386 5.398.193 7.712-1.543 1.543-.964 2.507-2.121 3.856-3.279 1.157-1.157 2.7-.771 4.242-.579 3.085.386 5.977.772 9.062.772a74.04 74.04 0 009.255 0c1.735-.193 3.084-.193 4.434-.579h.193c1.542 0 2.892-.771 4.242-.964.964-.193 3.277-.579 4.241.193-1.157 1.736-2.699 3.665-3.856 4.63-.193.192-.385.192-.578.385-.193.193-.579.386-.771.579-.193 0-.386 0-.386-.193-.193.193-.193.386-.193.578-.385.193-.578.386-.964.386-.386.193-.771.386-1.35.386-.578-.193-.578-.772-1.156-.579-.772.193-2.314 3.087-2.7 4.437 1.157.578 4.435-1.543 5.592-2.315.193 0 .193-.193.385-.193.193.965.579 1.736 1.157 2.122.964.386 2.892-3.28 3.278-3.858.385-.386.578-.964.964-1.35 3.663-1.736 9.64-5.98 6.555-8.101zM462.541 40.7c1.157-.772 1.735-.579 1.928-.193-.771 0-1.35.193-1.928.193zm-3.47-1.929c.385 0 .771 0 1.349-.193-.578.386-.964.386-1.349.193zm-41.647 4.822c-6.169.386-12.532.965-18.702 1.35 6.363-.771 12.725-1.35 18.895-2.121 0 .193 0 .578-.193.771zM253.154 70.02c0 .386-.193.772-.386 1.158l-.192.192h-.193c-.193 0-.193.193-.386.193-.193.193-.385.193-.578.386h-2.121c.193-.578.578-.964 1.157-1.35l.578-.579c.579.193 1.35.193 2.121 0zm-17.931 1.93h-.964c.193-.194.386-.58.578-.772v-.193c.193.193.193.578.386.964zm-12.725-.58h-.771c.193-.385.385-.771.385-1.157 0 .386.193.772.386 1.157zm-.193-45.136s1.735-.386 3.856-.771l-2.313 3.472c-.386-.965-.772-1.736-1.543-2.508v-.193zm-4.434 41.279c.192.193.385.193.578.385.193.193.386.193.578.386-.192.193-.385.386-.385.772-.193.771-.386 1.543-.964 2.314-1.35 0-2.314-.192-3.278-.192 1.35-1.158 2.507-2.508 3.471-3.665zm-5.013 7.522c-.386.193-.772.193-.964.193-.193 0-.386-.193-.579-.193-.578-.385-1.349-.964-1.735-1.543.193 0 .386 0 .578.193.964.193 2.7.386 5.013.579-.964.193-1.735.578-2.313.771zm4.434 1.35c.964-.578 1.735-1.35 2.507-2.121 1.735.193 3.47.193 5.398.193-.193.771 0 1.543.193 2.507-3.278-.192-6.17-.385-8.098-.578zm8.676-4.822c-.385-.192-.578-.385-.771-.771-.193-.386-.385-.772-.193-1.157 1.157.192 2.507.385 3.471.385 0 0 1.542 0 3.856.193v.193c-.193.386-.386.579-.771.772-.386 0-.771-.193-1.35 0-1.157-.193-2.121.192-3.085.578-.385-.193-.771-.193-1.157-.193zm9.062 4.244c-.385.579-.964 1.157-1.928 1.543-1.542 0-3.085-.193-4.434-.193-.386-.193-.579-.386-.772-.771-.385-.579-.385-1.158-.192-1.736h2.313c.193 0 .386.192.579.192h1.349c1.157 0 2.314 0 3.471.193-.193.193-.193.58-.386.772zm7.713-5.594c0 .386.192.579.192.965 0 .192.193.578.386.771h-5.399l-.578-1.736h5.399zm-5.785 7.137c.193-.193.386-.579.579-.771.193-.386.385-.965.578-1.544h7.52c0 .58 0 1.158.192 1.544 0 .192.193.578.386.771-3.085.193-6.17 0-9.255 0zm9.448-5.787c-.386-.385-.579-.578-.771-.964v-.193h1.542c-.386.193-.578.579-.771 1.157zm9.062 5.016c-.386.385-.772.771-1.157.964h-4.242c-.771-.386-1.542-.964-1.735-1.543 0-.193-.193-.579-.193-.772h7.712c.193.386 0 .965-.385 1.35zm0-5.209c.192-.385.385-.964.385-1.35 2.121 0 4.242-.193 5.977-.386l1.157 2.315c-1.735 0-3.663 0-5.784.193-.578-.386-1.157-.772-1.735-.772zm2.506 6.173c.579-.772.771-1.543.771-2.508 2.121 0 4.049 0 5.785-.193.385.772.771 1.737 1.349 2.315-2.313.193-5.013.193-7.905.386zm32.392-12.73c.385-.772.771-1.544.964-2.316.192 1.93-.386 4.437-1.543 6.559-2.506 5.015-6.941 7.33-14.653 7.715-.579 0-1.35 0-2.507.193h-.385c-1.735 0-2.892-.964-3.664-2.314 1.736 0 3.278-.193 4.049-.193 5.785-.193 13.69-1.543 17.739-9.645zm-9.255-1.351c.385.579 1.157.964 1.928.772h.771c.386 0 .771-.193 1.157-.193 0 .385-.386.771-.771 1.157-.386.386-1.157.772-1.928.965-.964 0-1.736-.386-2.121-.965a9.405 9.405 0 01-.579-1.35c.386 0 .964-.193 1.543-.386zm-.964-2.893c.385-.579.771-1.158 1.157-1.543h.192c.193 0 .386-.193.386-.193 0 .385-.386.771-.771 1.157-.193.193-.579.386-.964.579zm7.905.578c-.579-.964-1.543-1.736-2.507-1.929.193-.771.193-1.35.193-2.121.579 0 .964 0 1.543.193.578.192.964.385 1.349.578-.193 1.158-.193 2.122-.578 3.28zm-11.376-4.436c.193-1.35.964-2.508 1.736-3.086 1.349-1.158 2.699-1.736 4.048-1.736.579 0 1.157 0 1.736.192 1.349.386 2.506 1.158 3.085 2.122h-1.928c-.579 0-1.35 0-1.928.193-.772-.386-1.543-.579-2.314-.579h-.771c-1.35 0-2.7 1.158-2.892 2.7 0 .387 0 .773.192 1.158-.385.386-.771.965-1.156 1.543 0-.578 0-1.543.192-2.507zm-2.506 5.4c.385.386.964.772 1.542 1.158 0 1.543.386 2.894 1.157 3.858.964 1.35 2.699 1.929 4.627 1.929h.772c-2.507 1.35-5.592 2.314-9.833 2.507-.579 0-1.35 0-2.507.193h-.385c-.965 0-1.543-.193-2.314-.771 0-.193-.193-.386-.193-.579-.193-.386-.193-.772-.386-1.157.193 0 .193 0 .386-.193 3.856-1.35 5.977-3.858 7.134-6.944zm9.447-23.918c-.771.193-1.542.579-2.506.772v-.772h3.085-.579zm11.569 0c5.591 0 11.182.965 17.738 2.894 9.64 2.893 18.895 5.786 28.728 7.33-14.461-.386-27.379-4.244-40.875-8.68-2.121-.58-3.856-1.158-5.591-1.544zm177.381 1.736c-1.735.193-3.471.193-5.206.386.193-.772.386-1.543.386-2.122 8.098-.386 16.195-.771 24.1-.771-.192.578-.578 1.157-.771 1.736-6.17.193-12.339.386-18.509.771zm61.891 2.122c2.12-1.157 2.699-.964 2.699 0h-2.699zM283.425 297v-17.5h10.225v2.875h-7.15v3.9c.683-.1 1.467-.15 2.35-.15 1.817 0 3.25.475 4.3 1.425 1.05.95 1.575 2.233 1.575 3.85 0 1.817-.592 3.225-1.775 4.225-1.167.983-2.825 1.475-4.975 1.475-.4 0-1.283-.017-2.65-.05-.267 0-.55-.008-.85-.025-.3 0-.533-.008-.7-.025h-.35zm5.175-8c-.633 0-1.333.05-2.1.15v4.975c.817.067 1.467.1 1.95.1 2.15 0 3.225-.867 3.225-2.6 0-.817-.258-1.458-.775-1.925-.517-.467-1.283-.7-2.3-.7zm8.881-.75c0-2.55.85-4.692 2.55-6.425 1.734-1.733 3.917-2.6 6.55-2.6 2.634 0 4.809.833 6.525 2.5 1.734 1.683 2.6 3.858 2.6 6.525 0 2.617-.866 4.775-2.6 6.475-1.733 1.7-3.908 2.55-6.525 2.55-2.633 0-4.808-.833-6.525-2.5-1.716-1.667-2.575-3.842-2.575-6.525zm3.25 0c0 1.767.559 3.233 1.675 4.4 1.117 1.167 2.509 1.75 4.175 1.75 1.8 0 3.225-.583 4.275-1.75 1.067-1.167 1.6-2.633 1.6-4.4 0-1.783-.566-3.258-1.7-4.425-1.133-1.15-2.525-1.725-4.175-1.725-1.683 0-3.083.575-4.2 1.725-1.1 1.15-1.65 2.625-1.65 4.425zm31.323 8.75h-3.05v-14.625h-5.1l-.35 3.3c-.2 2-.458 3.708-.775 5.125-.317 1.417-.667 2.55-1.05 3.4-.383.85-.842 1.5-1.375 1.95-.517.45-1.058.733-1.625.85-.55.1-1.192.1-1.925 0l.075-3.05c.367.05.667.033.9-.05.233-.083.508-.317.825-.7.35-.433.633-1.008.85-1.725.6-1.783 1.042-4.608 1.325-8.475l.25-3.5h11.025V297zm9.663-8.75c-.3 0-.884.042-1.75.125v5.725c1.1.05 1.666.075 1.7.075 2.433 0 3.65-1.025 3.65-3.075 0-.933-.317-1.642-.95-2.125-.634-.483-1.517-.725-2.65-.725zm-4.825-8.75h3.075v6a17.448 17.448 0 012-.125c2.166 0 3.808.492 4.925 1.475 1.116.983 1.675 2.375 1.675 4.175 0 1.867-.642 3.342-1.925 4.425-1.267 1.067-3.042 1.6-5.325 1.6-.967 0-1.792-.008-2.475-.025a78.557 78.557 0 00-1.95-.025v-17.5zm35.309 17.5h-20.075v-17.5h3.075v14.625h5.425V279.5h3.075v14.625h5.425V279.5h3.075V297zm3.552-8.75c0-2.55.85-4.692 2.55-6.425 1.733-1.733 3.917-2.6 6.55-2.6s4.808.833 6.525 2.5c1.733 1.683 2.6 3.858 2.6 6.525 0 2.617-.867 4.775-2.6 6.475-1.733 1.7-3.908 2.55-6.525 2.55-2.633 0-4.808-.833-6.525-2.5-1.717-1.667-2.575-3.842-2.575-6.525zm3.25 0c0 1.767.558 3.233 1.675 4.4 1.117 1.167 2.508 1.75 4.175 1.75 1.8 0 3.225-.583 4.275-1.75 1.067-1.167 1.6-2.633 1.6-4.4 0-1.783-.567-3.258-1.7-4.425-1.133-1.15-2.525-1.725-4.175-1.725-1.683 0-3.083.575-4.2 1.725-1.1 1.15-1.65 2.625-1.65 4.425zm30.408-3.675L400.236 297h-2.7v-17.5h3.075v12.45l9.175-12.45h2.7V297h-3.075v-12.425zm-9.1-9.325h2.875c.2.967.909 1.45 2.125 1.45 1.267 0 1.934-.483 2-1.45h2.875c-.016 1.05-.491 1.917-1.425 2.6-.933.65-2.083.975-3.45.975-1.466 0-2.65-.317-3.55-.95-.883-.65-1.366-1.525-1.45-2.625zM425.709 297h-3.075v-17.5h3.075v8.3l6.9-8.3h3.7l-7.2 8.15 7.65 9.35h-3.9l-7.15-9.025V297zm11.445-8.75c0-2.55.85-4.692 2.55-6.425 1.734-1.733 3.917-2.6 6.55-2.6 2.634 0 4.809.833 6.525 2.5 1.734 1.683 2.6 3.858 2.6 6.525 0 2.617-.866 4.775-2.6 6.475-1.733 1.7-3.908 2.55-6.525 2.55-2.633 0-4.808-.833-6.525-2.5-1.716-1.667-2.575-3.842-2.575-6.525zm3.25 0c0 1.767.559 3.233 1.675 4.4 1.117 1.167 2.509 1.75 4.175 1.75 1.8 0 3.225-.583 4.275-1.75 1.067-1.167 1.6-2.633 1.6-4.4 0-1.783-.566-3.258-1.7-4.425-1.133-1.15-2.525-1.725-4.175-1.725-1.683 0-3.083.575-4.2 1.725-1.1 1.15-1.65 2.625-1.65 4.425zm21.609 8.75h-3.075v-17.5h3.1l5.975 8.175 5.7-8.175h2.9V297h-3.05v-12.65l-5.525 7.775h-.45l-5.575-7.7V297zm33.409 0h-3.075v-14.625h-7.8V297h-3.075v-17.5h13.95V297zm5.699 0h-3.1l7.4-17.55h2.7l7.4 17.55h-3.275l-1.825-4.475h-7.475L501.121 297zm8.125-7.35l-2.55-6.225-2.575 6.225h5.125zm23.021 7.35h-3.05v-7.475h-8V297h-3.075v-17.5h3.075v7.15h8v-7.15h3.05V297zm16.72-12.425L539.812 297h-2.7v-17.5h3.075v12.45l9.175-12.45h2.7V297h-3.075v-12.425zm19.799 0L559.611 297h-2.7v-17.5h3.075v12.45l9.175-12.45h2.7V297h-3.075v-12.425zm27.998 6.925h-16.1V289h16.1v2.5zM293.55 326.525h-7.875v-2.875h7.8c-.3-1.433-1.008-2.55-2.125-3.35-1.117-.8-2.508-1.2-4.175-1.2-1.533 0-2.9.45-4.1 1.35l-1.2-2.3c1.517-1.283 3.525-1.925 6.025-1.925 2.6 0 4.717.825 6.35 2.475 1.633 1.667 2.45 3.842 2.45 6.525 0 2.75-.825 4.95-2.475 6.6-1.667 1.633-3.892 2.45-6.675 2.45-1.167 0-2.275-.167-3.325-.5-1.05-.333-1.9-.775-2.55-1.325l1.325-2.575c1.317 1.017 2.817 1.525 4.5 1.525 1.6 0 2.942-.425 4.025-1.275 1.1-.867 1.775-2.067 2.025-3.6zm9.771 7.475h-3.075v-17.5h3.1l5.975 8.175 5.7-8.175h2.9V334h-3.05v-12.65l-5.525 7.775h-.45l-5.575-7.7V334zm18.159-8.75c0-2.55.85-4.692 2.55-6.425 1.734-1.733 3.917-2.6 6.55-2.6 2.634 0 4.809.833 6.525 2.5 1.734 1.683 2.6 3.858 2.6 6.525 0 2.617-.866 4.775-2.6 6.475-1.733 1.7-3.908 2.55-6.525 2.55-2.633 0-4.808-.833-6.525-2.5-1.716-1.667-2.575-3.842-2.575-6.525zm3.25 0c0 1.767.559 3.233 1.675 4.4 1.117 1.167 2.509 1.75 4.175 1.75 1.8 0 3.225-.583 4.275-1.75 1.067-1.167 1.6-2.633 1.6-4.4 0-1.783-.566-3.258-1.7-4.425-1.133-1.15-2.525-1.725-4.175-1.725-1.683 0-3.083.575-4.2 1.725-1.1 1.15-1.65 2.625-1.65 4.425zm31.859 8.75h-13.325v-17.5h3.075v14.625h7.675V316.5h3.075v14.625h2.375v6h-2.875V334zm17.788-12.425L365.202 334h-2.7v-17.5h3.075v12.45l9.175-12.45h2.7V334h-3.075v-12.425zm19.8 0L385.002 334h-2.7v-17.5h3.075v12.45l9.175-12.45h2.7V334h-3.075v-12.425zm13.223 12.4V316.55c1.8-.083 3.483-.125 5.05-.125 1.933 0 3.375.383 4.325 1.15.95.767 1.425 1.825 1.425 3.175 0 1.883-.834 3.208-2.5 3.975v.05c.95.25 1.7.725 2.25 1.425.55.683.825 1.567.825 2.65 0 1.7-.584 3-1.75 3.9-1.167.9-2.75 1.35-4.75 1.35s-3.625-.042-4.875-.125zm5.25-7.5h-2.175v4.625c.783.083 1.458.125 2.025.125 2.133 0 3.2-.842 3.2-2.525 0-.733-.267-1.283-.8-1.65-.534-.383-1.284-.575-2.25-.575zm-.25-7.175c-.734 0-1.375.025-1.925.075v4.425h2.075c.783 0 1.408-.2 1.875-.6.483-.4.725-.975.725-1.725 0-.7-.242-1.233-.725-1.6-.484-.383-1.159-.575-2.025-.575zm18.802 8.375V334h-3.075v-17.5c.733 0 1.525-.008 2.375-.025a132.57 132.57 0 012.6-.025c1.233 0 2.3.158 3.2.475.917.3 1.625.725 2.125 1.275a5.09 5.09 0 011.1 1.775 6.04 6.04 0 01.35 2.1c0 1.583-.567 2.925-1.7 4.025-1.117 1.1-2.683 1.65-4.7 1.65-1.017 0-1.775-.025-2.275-.075zm2.2-8.35l-2.2.05v5.375c.883.083 1.608.125 2.175.125.983 0 1.767-.242 2.35-.725.6-.483.9-1.183.9-2.1 0-1.817-1.075-2.725-3.225-2.725zM442.673 334h-3.1l7.4-17.55h2.7l7.4 17.55h-3.275l-1.825-4.475h-7.475L442.673 334zm8.125-7.35l-2.55-6.225-2.575 6.225h5.125zm13.347 7.625c-1.35 0-2.55-.275-3.6-.825-1.034-.55-1.834-1.258-2.4-2.125l1.675-2.075a6.681 6.681 0 001.975 1.55c.766.4 1.5.6 2.2.6.95 0 1.725-.225 2.325-.675.6-.467.9-1.108.9-1.925 0-.717-.275-1.275-.825-1.675-.534-.417-1.292-.625-2.275-.625h-1.8v-2.875h1.7c.7 0 1.291-.208 1.775-.625.5-.433.75-.992.75-1.675 0-.7-.234-1.242-.7-1.625-.45-.4-1.067-.6-1.85-.6-1.417 0-2.6.633-3.55 1.9l-1.775-2.05c.6-.817 1.408-1.475 2.425-1.975 1.016-.5 2.1-.75 3.25-.75 1.6 0 2.875.425 3.825 1.275.95.85 1.425 2.025 1.425 3.525 0 .733-.209 1.45-.625 2.15-.4.7-.975 1.267-1.725 1.7v.075c1 .25 1.75.742 2.25 1.475.516.717.775 1.608.775 2.675 0 1.55-.609 2.8-1.825 3.75-1.2.95-2.634 1.425-4.3 1.425zm13.249-.275h-3.075v-17.5h3.1l5.975 8.175 5.7-8.175h2.9V334h-3.05v-12.65l-5.525 7.775h-.45l-5.575-7.7V334zm29.834 0h-10.375v-17.5h10.125v2.875h-7.05v4.35h6.3v2.875h-6.3v4.525h7.3V334zm7.08-6.325V334h-3.075v-17.5c.733 0 1.525-.008 2.375-.025.866-.017 1.733-.025 2.6-.025 1.233 0 2.3.158 3.2.475.916.3 1.625.725 2.125 1.275.5.533.866 1.125 1.1 1.775a6.04 6.04 0 01.35 2.1c0 1.583-.567 2.925-1.7 4.025-1.117 1.1-2.684 1.65-4.7 1.65-1.017 0-1.775-.025-2.275-.075zm2.2-8.35l-2.2.05v5.375c.883.083 1.608.125 2.175.125.983 0 1.766-.242 2.35-.725.6-.483.9-1.183.9-2.1 0-1.817-1.075-2.725-3.225-2.725zM536.915 334H526.54v-17.5h10.125v2.875h-7.05v4.35h6.3v2.875h-6.3v4.525h7.3V334zm19.528-17.5h3.6l-5.9 8.575 6.125 8.925h-3.6l-4.525-6.575-4.5 6.575h-3.6l6.125-8.925-5.85-8.575h3.6l4.3 6.325 4.225-6.325zm16.577 0h3.6l-5.9 8.575 6.125 8.925h-3.6l-4.525-6.575-4.5 6.575h-3.6l6.125-8.925-5.85-8.575h3.6l4.3 6.325 4.225-6.325zm16.577 0h3.6l-5.9 8.575 6.125 8.925h-3.6l-4.525-6.575-4.5 6.575h-3.6l6.125-8.925-5.85-8.575h3.6l4.3 6.325 4.225-6.325zm17.449 17.5h-10.95v-17.5h3.075v14.625h7.875V334zm5.697-6.05h-3.05V316.5h3.05v11.45zm-3.45 4.175c0-.483.183-.908.55-1.275.383-.383.866-.575 1.45-.575.5 0 .925.192 1.275.575.366.367.55.792.55 1.275a2.04 2.04 0 01-.55 1.425c-.35.383-.775.575-1.275.575-.584 0-1.067-.192-1.45-.575-.367-.4-.55-.875-.55-1.425z" fill="#fff"/></svg>