<svg width="39" height="39" viewBox="0 0 39 39" fill="none" xmlns="http://www.w3.org/2000/svg"><path fill-rule="evenodd" clip-rule="evenodd" d="M19.5 0C8.73 0 0 8.73 0 19.5S8.73 39 19.5 39 39 30.27 39 19.5 30.27 0 19.5 0zM8.125 19.468c0-6.255 5.103-11.343 11.375-11.343s11.375 5.088 11.375 11.343c0 .886-.074 1.603-.24 2.323l-.002.012c0 .002-.083.334-.128.479-.281.896-.79 1.643-1.472 2.16a3.847 3.847 0 01-2.615.763 3.7 3.7 0 01-2.842-1.693 5.716 5.716 0 01-4.076 1.693c-3.173 0-5.754-2.574-5.754-5.737 0-3.164 2.581-5.738 5.754-5.738 3.172 0 5.753 2.574 5.753 5.738v1.85c.005 1.078.731 1.52 1.352 1.57.617.047 1.439-.312 1.725-1.482a9.04 9.04 0 00.213-1.938c0-4.972-4.057-9.018-9.043-9.018-4.986 0-9.043 4.046-9.043 9.018s4.057 9.017 9.043 9.017a9.023 9.023 0 004.881-1.43l.026-.016 1.533 1.776-.033.023A11.33 11.33 0 0119.5 30.81c-6.272 0-11.375-5.089-11.375-11.343z" fill="#fff"/><path fill-rule="evenodd" clip-rule="evenodd" d="M22.921 19.468a3.42 3.42 0 01-3.421 3.411 3.42 3.42 0 01-3.422-3.412 3.42 3.42 0 013.422-3.411 3.42 3.42 0 013.421 3.412z" fill="#fff"/></svg>